<svg xmlns="http://www.w3.org/2000/svg" viewBox="0 0 1200 630" role="img" aria-label="Silicon Civilization Stocks — US trading system">
  <defs>
    <linearGradient id="bg" x1="0" y1="630" x2="1200" y2="0" gradientUnits="userSpaceOnUse">
      <stop offset="0" stop-color="#101114"/>
      <stop offset=".58" stop-color="#17231d"/>
      <stop offset="1" stop-color="#263c32"/>
    </linearGradient>
    <filter id="soft-glow" x="-20%" y="-30%" width="140%" height="160%">
      <feGaussianBlur stdDeviation="9" result="blur"/>
      <feMerge><feMergeNode in="blur"/><feMergeNode in="SourceGraphic"/></feMerge>
    </filter>
  </defs>
  <rect width="1200" height="630" fill="url(#bg)"/>
  <g opacity=".14" stroke="#f2f4f1" stroke-width="1">
    <path d="M0 122h1200M0 242h1200M0 362h1200M0 482h1200"/>
    <path d="M164 0v630M344 0v630M524 0v630M704 0v630M884 0v630M1064 0v630"/>
  </g>
  <rect x="74" y="70" width="1052" height="490" rx="34" fill="#181a1f" fill-opacity=".68" stroke="#f2f4f1" stroke-opacity=".14" stroke-width="2"/>
  <text x="112" y="150" fill="#f2b84b" font-family="-apple-system,BlinkMacSystemFont,'Segoe UI',sans-serif" font-size="28" font-weight="700">DeepSeek · Yahoo Finance · US Equities</text>
  <text x="112" y="252" fill="#f2f4f1" font-family="-apple-system,BlinkMacSystemFont,'Segoe UI',sans-serif" font-size="84" font-weight="850">Silicon Civilization</text>
  <text x="112" y="352" fill="#f2f4f1" font-family="-apple-system,BlinkMacSystemFont,'Segoe UI',sans-serif" font-size="84" font-weight="850">Stocks</text>
  <g font-family="-apple-system,BlinkMacSystemFont,'Segoe UI',sans-serif">
    <g transform="translate(112 470)">
      <rect width="956" height="54" rx="14" fill="#121418" stroke="#30343b"/>
      <text x="24" y="36" fill="#63d471" font-size="28" font-weight="800">+40.5%</text>
      <text x="172" y="35" fill="#9ca39a" font-size="20">Return</text>
      <text x="320" y="35" fill="#f2f4f1" font-size="22" font-weight="700">CAGR +289.6%</text>
      <text x="508" y="35" fill="#f2f4f1" font-size="22" font-weight="700">Max DD -15.3%</text>
      <text x="694" y="35" fill="#f2f4f1" font-size="22" font-weight="700">Sharpe 2.95</text>
      <text x="864" y="35" fill="#9ca39a" font-size="18">$1,403,568</text>
    </g>
  </g>
  <polyline points="646.0,338.6 652.3,347.6 658.6,347.2 664.9,353.6 671.2,360.0 677.5,351.4 683.7,348.2 690.0,348.3 696.3,351.6 702.6,352.3 708.9,348.5 715.2,347.1 721.5,343.9 727.8,336.4 734.1,343.9 740.4,339.8 746.6,331.0 752.9,329.6 759.2,342.4 765.5,342.4 771.8,351.6 778.1,345.8 784.4,342.3 790.7,340.6 797.0,341.2 803.3,339.4 809.5,332.3 815.8,330.5 822.1,327.1 828.4,324.5 834.7,322.9 841.0,324.8 847.3,321.7 853.6,317.5 859.9,316.8 866.2,316.2 872.5,309.4 878.7,309.1 885.0,307.0 891.3,309.4 897.6,315.3 903.9,316.5 910.2,311.7 916.5,312.2 922.8,310.6 929.1,307.5 935.4,300.2 941.6,306.4 947.9,301.7 954.2,299.8 960.5,302.6 966.8,301.7 973.1,299.3 979.4,303.6 985.7,308.9 992.0,311.5 998.3,308.6 1004.5,305.0 1010.8,298.8 1017.1,294.5 1023.4,296.7 1029.7,295.8 1036.0,282.0" fill="none" stroke="#63d471" stroke-width="8" stroke-linecap="round" stroke-linejoin="round" filter="url(#soft-glow)"/>
</svg>
